<?xml version="1.0" standalone="no"?>
<!DOCTYPE svg PUBLIC "-//W3C//DTD SVG 20010904//EN"
 "http://www.w3.org/TR/2001/REC-SVG-20010904/DTD/svg10.dtd">
<svg version="1.0" xmlns="http://www.w3.org/2000/svg"
 width="896.000000pt" height="1193.000000pt" viewBox="0 0 896.000000 1193.000000"
 preserveAspectRatio="xMidYMid meet">

<g transform="translate(0.000000,1193.000000) scale(0.100000,-0.100000)"
fill="#000000" stroke="none">
<path d="M4739 9423 c-32 -20 -59 -63 -59 -95 0 -29 33 -83 59 -98 19 -10 21
-20 21 -127 l0 -117 60 -55 c57 -53 60 -58 60 -103 0 -39 6 -54 31 -83 17 -19
39 -34 48 -33 13 3 17 -10 22 -67 5 -66 6 -67 7 -17 1 28 7 52 12 52 11 0 14
-182 4 -193 -8 -7 -23 7 -48 47 -17 26 -17 28 -2 23 21 -8 -37 65 -89 111 -19
18 -35 42 -35 53 0 76 -96 82 -123 8 -9 -26 20 -58 61 -65 26 -5 57 -25 103
-68 37 -34 65 -64 62 -68 -2 -5 -54 -8 -114 -8 l-110 0 -20 35 c-11 19 -36 44
-55 55 l-34 22 0 153 0 154 30 17 c39 23 63 74 55 116 -8 40 -21 59 -57 82
l-28 18 0 124 0 124 -103 0 c-342 0 -646 -111 -890 -326 -277 -242 -409 -589
-395 -1038 l4 -146 -47 0 c-92 0 -148 -80 -156 -224 -5 -88 1 -121 67 -391 67
-270 76 -296 115 -343 28 -32 50 -46 91 -58 41 -12 55 -21 58 -37 3 -12 12
-60 21 -107 22 -112 66 -224 121 -307 l46 -67 9 -131 c6 -71 7 -196 3 -277
l-6 -147 26 -7 c14 -3 32 -4 40 -1 20 8 28 86 29 273 l0 164 108 -105 c209
-199 386 -311 542 -340 116 -22 303 -19 407 5 152 37 306 137 512 330 64 61
118 110 120 110 2 0 2 -45 0 -100 -3 -56 -1 -153 3 -216 8 -123 12 -132 59
-120 l24 6 4 272 4 273 29 45 c67 105 126 269 146 405 7 44 16 84 20 89 5 5
27 -11 52 -37 40 -43 47 -47 91 -47 40 0 52 5 76 30 35 37 45 75 29 112 -11
26 -8 34 33 96 24 37 50 81 57 99 10 23 21 33 46 37 21 4 45 20 65 42 27 31
31 43 29 84 -2 40 3 56 32 101 l34 54 2 173 c2 158 4 175 23 199 26 34 34 65
26 108 -7 34 -46 75 -72 75 -18 0 -30 26 -38 83 -6 39 -4 52 13 73 39 50 21
133 -33 161 -21 10 -27 11 -18 2 20 -21 14 -27 -25 -25 -28 1 -39 6 -41 20 -3
14 0 17 12 13 22 -9 20 6 -9 61 -24 45 -25 46 -25 16 0 -16 5 -35 12 -42 6 -6
9 -14 6 -17 -2 -3 -17 12 -31 32 -33 46 -33 43 -3 -34 22 -58 23 -63 7 -77
-15 -14 -18 -13 -29 5 -7 11 -11 23 -8 27 3 5 -23 23 -57 41 -57 30 -59 30
-32 7 17 -14 29 -32 27 -40 -1 -8 5 -17 14 -20 14 -5 15 -4 4 9 -7 8 -8 15 -2
15 15 0 33 -26 24 -35 -4 -5 -2 -5 4 -2 8 4 13 -10 17 -41 3 -26 8 -56 12 -68
5 -16 -10 -42 -66 -112 -40 -50 -76 -89 -80 -86 -4 2 -11 29 -14 59 -7 49 -5
57 19 85 14 18 26 40 26 51 0 28 -26 75 -45 83 -13 5 -14 2 -3 -17 13 -25 11
-76 -4 -94 -6 -7 -20 -13 -32 -13 -12 0 -28 6 -36 13 -8 6 -7 3 3 -9 9 -11 17
-26 17 -32 0 -7 4 -12 9 -12 4 0 6 -10 4 -22 -2 -13 0 -52 5 -88 l9 -64 -55
-59 c-39 -40 -62 -57 -76 -55 -20 3 -21 12 -29 198 -4 107 -6 227 -4 267 3 47
0 74 -7 76 -7 3 -6 9 3 18 9 9 11 9 7 2 -12 -21 29 -15 58 8 35 27 27 36 -10
12 -16 -10 -25 -13 -21 -7 4 7 -4 12 -21 12 -38 2 -55 6 -71 16 -11 7 -13 5
-8 -7 4 -10 0 -17 -11 -20 -13 -3 -11 -7 11 -17 l27 -13 0 -159 c0 -87 -2
-158 -5 -158 -11 0 -81 48 -95 65 -8 10 -19 32 -25 48 -13 41 -37 54 -72 41
-35 -12 -51 -53 -35 -89 9 -19 19 -25 44 -25 36 0 147 -66 173 -103 9 -14 15
-45 15 -84 0 -62 0 -63 -39 -87 -22 -14 -43 -38 -49 -55 -11 -31 -11 -31 -88
-31 -71 0 -79 2 -112 31 -20 18 -65 46 -101 62 -57 27 -75 30 -161 31 -88 1
-101 -2 -156 -29 -43 -22 -64 -40 -76 -65 -45 -91 -9 -121 61 -51 47 47 81 54
81 18 0 -13 11 -34 25 -47 20 -19 37 -24 81 -24 49 -1 59 2 80 27 13 15 24 37
24 48 0 29 22 23 80 -20 l52 -39 98 5 99 6 15 -37 c11 -27 26 -41 59 -55 41
-18 44 -22 61 -84 31 -113 6 -116 -88 -11 -63 70 -71 75 -104 72 -47 -4 -52
-24 -10 -41 35 -15 158 -139 158 -160 0 -6 -4 -28 -9 -47 -4 -20 -5 -44 -1
-55 5 -14 0 -29 -18 -50 -14 -16 -28 -30 -32 -30 -4 0 -26 24 -48 53 -36 48
-39 57 -31 85 22 76 -34 135 -117 122 -39 -6 -44 -4 -66 25 -47 64 -74 72
-215 68 -109 -4 -127 -7 -129 -21 -2 -15 11 -17 122 -17 l125 0 49 -46 c44
-42 48 -48 40 -75 -22 -75 20 -129 99 -129 44 0 48 -2 89 -56 l44 -56 -38 -39
c-62 -64 -62 -64 -190 61 -77 75 -119 110 -130 106 -8 -3 -12 -2 -9 4 3 5 -13
8 -37 7 -43 -2 -43 -2 -43 33 0 25 6 37 21 45 15 7 18 13 10 21 -8 9 -18 8
-38 -2 -28 -15 -44 -59 -33 -94 8 -26 61 -53 88 -46 17 4 45 -19 140 -116
l118 -121 -3 -158 -3 -158 -39 -34 c-33 -28 -40 -40 -40 -70 0 -39 31 -82 71
-98 55 -21 132 49 118 110 -3 15 -18 40 -33 54 l-27 26 3 155 3 156 36 35 c19
19 40 32 44 29 5 -3 9 -69 9 -148 0 -133 2 -144 21 -162 18 -16 20 -27 16 -65
-3 -26 -15 -64 -26 -85 -12 -21 -21 -43 -21 -48 0 -23 -150 -203 -265 -318
-71 -71 -132 -128 -136 -128 -4 0 1 25 12 56 21 58 49 230 49 299 0 39 -2 37
-49 -56 -85 -170 -160 -251 -288 -312 l-68 -32 -190 0 c-216 0 -259 9 -355 73
-68 46 -178 189 -217 282 -14 36 -31 70 -36 75 -19 22 17 -245 49 -355 14 -49
-182 143 -307 300 -125 157 -183 348 -224 742 -17 160 -20 500 -5 663 12 138
30 208 81 313 l41 83 -7 167 c-6 140 -4 177 9 230 10 35 21 71 25 80 4 10 18
39 31 65 29 61 129 153 206 192 87 44 162 45 284 6 190 -61 293 -83 390 -87
l95 -4 3 -125 c2 -106 0 -125 -13 -125 -8 0 -29 -13 -46 -28 -57 -51 -48 -156
16 -198 29 -19 102 -22 133 -5 12 6 31 29 42 50 l20 39 137 -1 138 -2 3 -36
c3 -33 -3 -43 -48 -88 -51 -51 -51 -51 -115 -51 l-64 0 -66 -66 c-55 -53 -64
-68 -55 -79 18 -21 4 -82 -22 -96 -18 -10 -20 -9 -14 6 5 14 4 15 -7 7 -16
-13 -53 -8 -50 7 2 6 -3 10 -10 8 -8 -1 -12 10 -12 33 0 30 5 37 35 52 19 9
28 17 19 18 -9 0 -28 -9 -43 -21 -20 -16 -26 -29 -26 -60 0 -34 5 -42 33 -59
17 -11 40 -20 50 -20 30 0 67 45 67 81 0 27 10 42 55 84 57 52 68 69 38 58
-16 -6 -16 -4 1 15 11 13 30 22 45 21 l26 0 -25 -12 c-23 -11 -19 -12 38 -15
55 -3 64 -6 72 -26 13 -36 49 -56 100 -56 51 0 90 26 90 60 0 19 7 20 107 20
58 0 104 2 102 4 -2 2 -46 6 -96 8 -99 3 -124 14 -45 21 l47 3 -52 2 c-43 2
-53 6 -58 23 -5 16 2 31 31 62 l39 40 -40 -31 c-51 -41 -67 -41 -29 0 25 29
26 30 2 10 -15 -14 -35 -22 -50 -20 -23 3 -23 4 -26 155 -2 144 -1 153 18 165
28 18 25 31 -5 24 -34 -9 -32 6 3 22 31 13 57 56 46 74 -4 6 -12 -4 -18 -23
-14 -43 -55 -60 -94 -38 -57 31 -30 129 35 129 15 0 22 4 17 11 -4 8 1 9 15 4
20 -6 21 -5 10 14 -19 30 -56 35 -99 13 l-38 -18 -38 28 c-21 16 -44 39 -51
51 -16 29 -18 227 -2 227 7 0 27 16 45 36 32 33 35 35 71 25 47 -13 56 -14 48
-1 -3 6 2 10 11 10 16 0 16 1 -2 16 -19 15 -18 15 4 11 12 -3 20 -2 17 2 -2 4
-29 13 -60 20 -45 10 -58 18 -70 42 -28 53 -96 73 -146 42z m79 -49 c25 -17
31 -71 10 -92 -33 -33 -88 2 -88 54 0 49 37 67 78 38z m-204 -290 c9 -8 16
-23 16 -31 0 -24 -30 -53 -53 -53 -44 0 -74 59 -45 88 17 17 64 15 82 -4z
m349 -334 c33 -16 35 -29 5 -28 -23 2 -58 25 -58 39 0 9 18 6 53 -11z m-28
-188 c-6 -7 -35 18 -35 31 0 5 9 2 20 -8 11 -10 18 -20 15 -23z m-321 -13 c29
-22 36 -78 13 -97 -67 -56 -159 36 -97 98 26 26 51 25 84 -1z m423 -231 c22
-29 22 -48 -1 -74 -18 -22 -28 -26 -50 -20 -38 9 -54 48 -32 81 18 27 66 35
83 13z m1039 -33 c34 -52 -15 -112 -71 -87 -62 29 -47 112 20 112 26 0 39 -6
51 -25z m-62 -145 c18 -7 26 -17 26 -34 0 -14 4 -36 10 -51 8 -20 7 -27 -5
-32 -9 -3 -24 -21 -34 -40 -17 -35 -18 -35 -94 -38 -42 -2 -79 0 -82 6 -3 5
18 39 48 76 29 38 62 80 71 96 20 30 24 31 60 17z m130 -182 c20 -29 20 -47
-1 -70 -23 -26 -58 -22 -82 8 -27 34 -26 49 1 68 32 22 64 20 82 -6z m-142
-84 c7 -14 29 -34 50 -45 22 -11 40 -29 44 -43 3 -13 4 -86 2 -162 -3 -129 -5
-142 -28 -177 -24 -35 -27 -37 -65 -31 -51 8 -58 16 -82 90 l-20 60 27 31 c15
17 29 36 31 42 3 7 30 15 62 18 47 5 57 9 57 24 0 16 -8 19 -52 19 -49 0 -55
3 -88 41 -28 32 -44 42 -77 46 -39 5 -46 2 -78 -30 -27 -27 -35 -43 -35 -70 0
-46 28 -94 61 -106 20 -7 31 -22 43 -58 9 -26 25 -63 35 -82 17 -33 17 -35 -3
-72 -19 -36 -25 -39 -63 -39 -38 0 -44 3 -64 39 -20 36 -49 55 -110 74 -19 6
-47 139 -29 145 46 16 79 102 62 160 -12 37 -11 37 45 94 l57 58 103 0 c101 0
104 0 115 -26z m-2765 -78 c14 -13 27 -42 33 -75 18 -93 13 -100 -25 -39 -39
62 -87 90 -112 65 -11 -11 -9 -19 12 -47 27 -37 31 -60 14 -91 -12 -24 -1
-118 12 -98 5 8 11 33 15 57 3 23 10 45 15 48 5 3 21 -20 35 -51 l26 -57 -18
-41 c-36 -79 -15 -216 36 -232 11 -3 20 -14 20 -23 1 -9 7 -66 14 -127 7 -60
12 -111 11 -113 -2 -2 -17 4 -34 12 -42 22 -58 58 -86 189 -13 62 -36 155 -51
207 -55 197 -67 298 -44 382 19 67 76 83 127 34z m2367 -37 c36 -28 36 -80 -1
-108 -30 -24 -58 -20 -85 11 -33 38 -17 93 32 111 24 9 26 8 54 -14z m301 -63
c11 -31 -2 -59 -29 -64 -30 -6 -64 7 -71 28 -22 70 75 105 100 36z m-988 -182
c-3 -3 -12 -4 -19 -1 -8 3 -5 6 6 6 11 1 17 -2 13 -5z m121 -1 c-21 -2 -55 -2
-75 0 -21 2 -4 4 37 4 41 0 58 -2 38 -4z m298 -138 c26 -39 6 -75 -40 -75 -44
0 -63 28 -45 63 24 45 60 50 85 12z m354 -25 c26 -26 25 -58 -2 -87 -28 -30
-59 -29 -92 3 -31 32 -32 38 -5 75 25 35 69 39 99 9z m325 -10 c37 -41 -14
-107 -63 -81 -29 16 -37 47 -18 76 20 30 56 32 81 5z m-1035 -73 c0 -5 -4 -5
-10 -2 -5 3 -10 14 -10 23 0 15 2 15 10 2 5 -8 10 -19 10 -23z m902 -26 c28
-43 28 -44 -42 -149 -34 -51 -36 -52 -84 -52 -43 0 -53 -4 -82 -35 -49 -52
-58 -47 -50 30 l7 65 -30 0 c-35 0 -40 -15 -59 -155 -12 -93 -42 -205 -54
-205 -7 0 -14 237 -8 325 1 28 12 52 38 83 35 42 37 44 76 36 88 -16 131 0
168 62 17 29 25 34 57 34 32 0 41 -5 63 -39z m-100 -278 c38 -35 14 -87 -39
-81 -38 4 -55 49 -28 78 22 24 42 25 67 3z m-454 -365 c28 -28 1 -75 -37 -63
-11 3 -23 15 -26 26 -12 38 35 65 63 37z"/>
<path d="M4989 9156 c-17 -36 -4 -74 27 -82 14 -4 30 -2 35 3 7 7 2 9 -14 6
-18 -4 -28 1 -36 16 -7 12 -8 21 -2 21 5 0 11 -6 14 -12 3 -10 8 -9 22 2 17
13 18 13 10 0 -8 -13 -6 -13 8 -2 9 8 21 11 27 7 13 -8 13 21 0 46 -16 30 -77
26 -91 -5z"/>
<path d="M5326 9017 c3 -10 9 -15 12 -12 3 3 0 11 -7 18 -10 9 -11 8 -5 -6z"/>
<path d="M5104 8848 c0 -18 -3 -43 -7 -55 -7 -18 -5 -22 7 -17 12 4 16 20 16
55 0 27 -4 49 -8 49 -5 0 -8 -15 -8 -32z"/>
<path d="M5299 8848 c-12 -23 -12 -23 10 -4 23 21 26 26 11 26 -5 0 -15 -10
-21 -22z"/>
<path d="M5300 8721 c0 -12 58 -41 82 -41 19 0 15 4 -17 20 -38 18 -38 18 -9
13 18 -3 35 0 39 6 4 8 -9 11 -44 10 -28 -1 -51 -5 -51 -8z"/>
<path d="M5156 8639 c-20 -24 -26 -41 -25 -77 l1 -47 8 47 c5 26 18 61 30 78
28 39 19 39 -14 -1z"/>
<path d="M5164 8596 c-3 -13 -4 -35 -1 -47 3 -17 5 -14 6 12 0 19 6 40 13 47
9 9 9 12 0 12 -6 0 -14 -11 -18 -24z"/>
<path d="M5657 8595 c6 -11 11 -24 11 -30 0 -5 5 -11 10 -13 15 -5 2 35 -16
50 -13 11 -14 10 -5 -7z"/>
<path d="M5641 8544 c0 -11 3 -14 6 -6 3 7 2 16 -1 19 -3 4 -6 -2 -5 -13z"/>
<path d="M5268 8523 c18 -2 45 -2 60 0 15 2 0 4 -33 4 -33 0 -45 -2 -27 -4z"/>
<path d="M5691 8514 c0 -11 3 -14 6 -6 3 7 2 16 -1 19 -3 4 -6 -2 -5 -13z"/>
<path d="M5225 8500 c-4 -6 25 -10 82 -9 77 1 82 3 43 10 -64 11 -118 11 -125
-1z"/>
<path d="M5727 8399 c7 -7 15 -10 18 -7 3 3 -2 9 -12 12 -14 6 -15 5 -6 -5z"/>
<path d="M5800 8371 c0 -13 39 -35 48 -27 3 3 0 6 -6 6 -6 0 -18 7 -26 16 -9
8 -16 11 -16 5z"/>
<path d="M5651 8204 c0 -11 3 -14 6 -6 3 7 2 16 -1 19 -3 4 -6 -2 -5 -13z"/>
<path d="M5660 8174 c0 -6 7 -19 16 -30 14 -18 14 -18 3 6 -14 31 -19 36 -19
24z"/>
<path d="M3784 8100 c-107 -22 -189 -91 -244 -207 -43 -90 -38 -104 23 -60 57
40 139 87 154 87 7 0 26 8 40 18 35 22 207 22 303 -1 89 -21 174 -30 199 -22
35 11 29 69 -12 110 -38 38 -111 58 -276 74 -115 12 -129 12 -187 1z"/>
<path d="M4913 8089 c-81 -10 -183 -36 -201 -51 -7 -6 -22 -28 -33 -47 -11
-20 -35 -59 -53 -88 -53 -84 -70 -184 -62 -371 5 -131 10 -167 33 -234 27 -80
27 -80 45 -58 21 25 22 46 8 121 -6 29 -11 128 -11 219 -1 147 1 171 21 224
12 32 30 66 40 76 32 32 230 73 360 74 106 1 119 -1 174 -27 33 -16 86 -47
118 -69 46 -32 61 -39 71 -29 17 17 -32 108 -95 177 -68 73 -126 94 -256 93
-53 -1 -125 -5 -159 -10z"/>
<path d="M3880 7850 c-55 -12 -137 -52 -170 -82 -67 -64 -91 -77 -116 -67 -29
10 -74 12 -74 3 0 -4 12 -18 27 -32 26 -24 28 -24 97 -12 57 10 82 20 124 53
29 22 55 37 58 34 3 -3 13 -20 22 -39 23 -45 56 -60 117 -54 55 6 85 31 85 72
0 41 52 24 114 -38 30 -30 46 -22 46 21 0 51 -33 91 -97 119 -57 24 -170 35
-233 22z"/>
<path d="M4317 7763 c4 -27 8 -119 8 -205 0 -86 3 -151 6 -145 17 31 31 165
24 231 -9 96 -25 166 -36 166 -7 0 -7 -18 -2 -47z"/>
<path d="M4035 7574 c-83 -26 -225 -36 -275 -20 -25 8 -25 8 -4 -8 65 -47 229
-47 321 0 53 27 80 55 51 53 -7 -1 -49 -12 -93 -25z"/>
<path d="M4779 7553 c-13 -17 -13 -17 6 -3 11 8 22 16 24 17 2 2 0 3 -6 3 -6
0 -17 -8 -24 -17z"/>
<path d="M4158 7250 c-29 -29 -30 -34 -26 -97 4 -62 7 -69 37 -92 18 -14 45
-35 58 -46 l25 -21 -113 -27 c-63 -16 -147 -30 -188 -33 l-75 -5 46 49 c46 49
94 129 84 140 -3 3 -29 -17 -58 -44 -29 -27 -73 -64 -98 -83 -71 -54 -93 -87
-98 -145 -3 -40 2 -61 20 -95 26 -49 48 -64 48 -33 0 11 12 33 27 49 l27 29
110 -83 c202 -151 307 -188 521 -180 178 6 266 38 432 159 133 97 154 118 147
140 -5 17 -3 18 14 9 19 -10 20 -9 16 17 -4 22 -3 25 8 14 9 -9 13 -40 12 -97
0 -46 3 -82 7 -79 5 3 21 25 35 50 49 84 21 184 -67 240 -22 13 -68 49 -104
79 -54 46 -63 51 -55 29 18 -46 32 -67 79 -117 l46 -50 -75 7 c-84 8 -164 26
-266 57 l-69 22 47 13 c51 16 105 62 114 100 15 59 -35 154 -80 154 -19 0 -20
-8 -1 -40 18 -31 19 -102 3 -118 -7 -7 -29 -12 -49 -12 -51 0 -76 -11 -129
-57 -73 -65 -120 -63 -195 6 -46 42 -104 66 -139 57 -48 -12 -67 51 -37 118
17 39 18 46 5 46 -9 0 -29 -14 -46 -30z m280 -389 c31 -6 59 -5 95 5 45 12 68
12 172 -2 66 -9 162 -17 213 -18 50 0 92 -4 92 -7 0 -29 -255 -54 -530 -52
-358 2 -540 19 -540 50 0 5 48 9 108 10 59 1 145 9 192 17 85 15 117 14 198
-3z m42 -145 c30 0 126 4 214 8 135 8 158 7 154 -5 -6 -19 -95 -72 -159 -93
-79 -27 -275 -33 -371 -12 -92 20 -193 67 -208 97 l-12 22 163 -8 c90 -5 189
-9 219 -9z"/>
<path d="M5096 6785 c4 -8 8 -15 10 -15 2 0 4 7 4 15 0 8 -4 15 -10 15 -5 0
-7 -7 -4 -15z"/>
<path d="M4220 6443 c0 -14 45 -73 56 -73 6 0 17 -7 24 -15 10 -12 10 -15 -1
-15 -9 0 -6 -8 8 -22 20 -20 32 -21 165 -22 141 -1 143 -1 173 26 35 30 83
114 72 125 -4 4 -36 -1 -71 -10 -82 -22 -254 -23 -322 -2 -52 16 -104 20 -104
8z m245 -93 l110 -7 -111 -1 c-87 -2 -114 1 -130 14 -19 15 -19 16 1 8 11 -4
70 -11 130 -14z"/>
</g>
</svg>
